<?xml version="1.0" encoding="UTF-8" standalone="no"?>
<!-- Created with Inkscape (http://www.inkscape.org/) -->

<svg
   xmlns:dc="http://purl.org/dc/elements/1.1/"
   xmlns:cc="http://creativecommons.org/ns#"
   xmlns:rdf="http://www.w3.org/1999/02/22-rdf-syntax-ns#"
   xmlns:svg="http://www.w3.org/2000/svg"
   xmlns="http://www.w3.org/2000/svg"
   xmlns:sodipodi="http://sodipodi.sourceforge.net/DTD/sodipodi-0.dtd"
   xmlns:inkscape="http://www.inkscape.org/namespaces/inkscape"
   width="210mm"
   height="297mm"
   viewBox="0 0 210 297"
   version="1.1"
   id="svg8"
   inkscape:version="0.92.5 (2060ec1f9f, 2020-04-08)"
   sodipodi:docname="drawing-1.svg">
  <defs
     id="defs2" />
  <sodipodi:namedview
     id="base"
     pagecolor="#ffffff"
     bordercolor="#666666"
     borderopacity="1.0"
     inkscape:pageopacity="0.0"
     inkscape:pageshadow="2"
     inkscape:zoom="0.5"
     inkscape:cx="224.87144"
     inkscape:cy="497.00789"
     inkscape:document-units="px"
     inkscape:current-layer="layer1"
     showgrid="false"
     showborder="false"
     inkscape:window-width="1280"
     inkscape:window-height="683"
     inkscape:window-x="1366"
     inkscape:window-y="0"
     inkscape:window-maximized="1"
     inkscape:object-nodes="false" />
  <metadata
     id="metadata5">
    <rdf:RDF>
      <cc:Work
         rdf:about="">
        <dc:format>image/svg+xml</dc:format>
        <dc:type
           rdf:resource="http://purl.org/dc/dcmitype/StillImage" />
        <dc:title />
      </cc:Work>
    </rdf:RDF>
  </metadata>
  <g
     inkscape:label="Layer 1"
     inkscape:groupmode="layer"
     id="layer1">
    <g
       id="g1593">
      <path
         transform="scale(0.26458333)"
         id="path1559"
         d="M -107.39844 705.91602 L -102.10156 700.61914 C -139.0004 618.72186 -137.15444 527.17099 -102.14062 449.03516 L -107.43555 443.74023 C -144.64253 524.95908 -146.63681 620.72628 -107.39844 705.91602 z "
         style="color:#000000;font-style:normal;font-variant:normal;font-weight:normal;font-stretch:normal;font-size:medium;line-height:normal;font-family:sans-serif;font-variant-ligatures:normal;font-variant-position:normal;font-variant-caps:normal;font-variant-numeric:normal;font-variant-alternates:normal;font-feature-settings:normal;text-indent:0;text-align:start;text-decoration:none;text-decoration-line:none;text-decoration-style:solid;text-decoration-color:#000000;letter-spacing:normal;word-spacing:normal;text-transform:none;writing-mode:lr-tb;direction:ltr;text-orientation:mixed;dominant-baseline:auto;baseline-shift:baseline;text-anchor:start;white-space:normal;shape-padding:0;clip-rule:nonzero;display:inline;overflow:visible;visibility:visible;opacity:1;isolation:auto;mix-blend-mode:normal;color-interpolation:sRGB;color-interpolation-filters:linearRGB;solid-color:#000000;solid-opacity:1;vector-effect:none;fill:#000000;fill-opacity:1;fill-rule:nonzero;stroke:none;stroke-width:7;stroke-linecap:round;stroke-linejoin:round;stroke-miterlimit:4;stroke-dasharray:none;stroke-dashoffset:0;stroke-opacity:1;color-rendering:auto;image-rendering:auto;shape-rendering:auto;text-rendering:auto;enable-background:accumulate" />
      <path
         transform="scale(0.26458333)"
         id="path1555"
         d="M 462.7793 442.39648 L 457.48438 447.69141 C 495.25325 530.42481 493.35555 623.18132 457.53906 702.05664 L 462.79297 707.3125 C 500.80878 625.36698 502.90241 528.40831 462.7793 442.39648 z "
         style="color:#000000;font-style:normal;font-variant:normal;font-weight:normal;font-stretch:normal;font-size:medium;line-height:normal;font-family:sans-serif;font-variant-ligatures:normal;font-variant-position:normal;font-variant-caps:normal;font-variant-numeric:normal;font-variant-alternates:normal;font-feature-settings:normal;text-indent:0;text-align:start;text-decoration:none;text-decoration-line:none;text-decoration-style:solid;text-decoration-color:#000000;letter-spacing:normal;word-spacing:normal;text-transform:none;writing-mode:lr-tb;direction:ltr;text-orientation:mixed;dominant-baseline:auto;baseline-shift:baseline;text-anchor:start;white-space:normal;shape-padding:0;clip-rule:nonzero;display:inline;overflow:visible;visibility:visible;opacity:1;isolation:auto;mix-blend-mode:normal;color-interpolation:sRGB;color-interpolation-filters:linearRGB;solid-color:#000000;solid-opacity:1;vector-effect:none;fill:#000000;fill-opacity:1;fill-rule:nonzero;stroke:none;stroke-width:7;stroke-linecap:round;stroke-linejoin:round;stroke-miterlimit:4;stroke-dasharray:none;stroke-dashoffset:0;stroke-opacity:1;color-rendering:auto;image-rendering:auto;shape-rendering:auto;text-rendering:auto;enable-background:accumulate" />
      <g
         style="stroke-width:2.32628322"
         transform="matrix(0.42987028,0,0,0.42987028,26.850734,91.62044)"
         id="g1424">
        <path
           inkscape:connector-curvature="0"
           style="color:#000000;font-style:normal;font-variant:normal;font-weight:normal;font-stretch:normal;font-size:medium;line-height:normal;font-family:sans-serif;font-variant-ligatures:normal;font-variant-position:normal;font-variant-caps:normal;font-variant-numeric:normal;font-variant-alternates:normal;font-feature-settings:normal;text-indent:0;text-align:start;text-decoration:none;text-decoration-line:none;text-decoration-style:solid;text-decoration-color:#000000;letter-spacing:normal;word-spacing:normal;text-transform:none;writing-mode:lr-tb;direction:ltr;text-orientation:mixed;dominant-baseline:auto;baseline-shift:baseline;text-anchor:start;white-space:normal;shape-padding:0;clip-rule:nonzero;display:inline;overflow:visible;visibility:visible;opacity:1;isolation:auto;mix-blend-mode:normal;color-interpolation:sRGB;color-interpolation-filters:linearRGB;solid-color:#000000;solid-opacity:1;vector-effect:none;fill:#000000;fill-opacity:1;fill-rule:nonzero;stroke:none;stroke-width:38.68590546;stroke-linecap:round;stroke-linejoin:round;stroke-miterlimit:4;stroke-dasharray:none;stroke-dashoffset:0;stroke-opacity:1;color-rendering:auto;image-rendering:auto;shape-rendering:auto;text-rendering:auto;enable-background:accumulate"
           d="m -50.314453,304.20703 v 8.3125 31.68359 H -382.5957 l 2.51758,10.28907 43.51562,178.02929 -46.0332,188.3125 h 332.281247 v 36.11329 L 178,910.54102 406.31445,756.94727 V 720.83398 H 738.5957 L 692.56055,532.52148 738.5957,344.20312 h -10.59375 -321.6875 v -39.99609 z m 16.630859,16.625 H 389.68164 V 748.0957 L 282.03906,820.50977 178,750.51953 73.960938,820.50977 -33.683594,748.0957 Z m 20.626953,20.63281 38.50586,130.57032 h 0.002 a 8.315792,8.315792 0 0 0 2.097656,3.53125 L 84.496141,532.51367 -10.623,627.63086 a 8.3157916,8.3157916 0 0 0 -2.201172,7.83008 l 10.5253909,43.68554 a 8.3157916,8.3157916 0 0 0 0.042969,0.17579 l 0.011719,0.0547 a 8.3157916,8.3157916 0 0 0 0.019531,0.0684 8.3157916,8.3157916 0 0 0 0.2050782,0.69727 8.3157916,8.3157916 0 0 0 0.054687,0.14062 8.3157916,8.3157916 0 0 0 0.2597657,0.63672 8.3157916,8.3157916 0 0 0 0.052734,0.10352 8.3157916,8.3157916 0 0 0 0.3339844,0.63281 8.3157916,8.3157916 0 0 0 0.054687,0.0859 8.3157916,8.3157916 0 0 0 0.41015628,0.61914 8.3157916,8.3157916 0 0 0 0.0390625,0.0449 8.3157916,8.3157916 0 0 0 0.49414062,0.60742 8.3157916,8.3157916 0 0 0 0.2734375,0.29297 l 27.2519529,27.25195 a 8.3157916,8.3157916 0 0 0 0.150391,0.13868 8.3157916,8.3157916 0 0 0 0.105469,0.0937 8.3157916,8.3157916 0 0 0 0.503906,0.43164 8.3157916,8.3157916 0 0 0 0.171875,0.125 8.3157916,8.3157916 0 0 0 0.519531,0.36132 8.3157916,8.3157916 0 0 0 0.146484,0.0859 8.3157916,8.3157916 0 0 0 0.583985,0.32227 8.3157916,8.3157916 0 0 0 0.140625,0.0664 8.3157916,8.3157916 0 0 0 0.603515,0.25977 8.3157916,8.3157916 0 0 0 0.203125,0.0723 8.3157916,8.3157916 0 0 0 0.583985,0.1836 8.3157916,8.3157916 0 0 0 0.21875,0.0586 l 43.919922,10.58594 a 8.3157916,8.3157916 0 0 0 7.824218,-2.20898 L 178,626.01562 l 95.11719,95.11915 a 8.315792,8.315792 0 0 0 7.82422,2.20898 l 43.91992,-10.58594 a 8.315792,8.315792 0 0 0 0.21875,-0.0586 8.315792,8.315792 0 0 0 0.58398,-0.1836 8.315792,8.315792 0 0 0 0.20313,-0.0723 8.315792,8.315792 0 0 0 0.60351,-0.25977 8.315792,8.315792 0 0 0 0.14258,-0.0664 8.315792,8.315792 0 0 0 0.58203,-0.32227 8.315792,8.315792 0 0 0 0.14844,-0.0859 8.315792,8.315792 0 0 0 0.51758,-0.36132 8.315792,8.315792 0 0 0 0.17187,-0.125 8.315792,8.315792 0 0 0 0.50391,-0.43164 8.315792,8.315792 0 0 0 0.10547,-0.0937 8.315792,8.315792 0 0 0 0.15039,-0.13868 l 27.25195,-27.25195 a 8.315792,8.315792 0 0 0 0.27344,-0.29297 8.315792,8.315792 0 0 0 0.49609,-0.60742 8.315792,8.315792 0 0 0 0.0371,-0.0449 8.315792,8.315792 0 0 0 0.41016,-0.61914 8.315792,8.315792 0 0 0 0.0547,-0.0859 8.315792,8.315792 0 0 0 0.33398,-0.63281 8.315792,8.315792 0 0 0 0.0527,-0.10352 8.315792,8.315792 0 0 0 0.25977,-0.63672 8.315792,8.315792 0 0 0 0.0547,-0.14062 8.315792,8.315792 0 0 0 0.20508,-0.69727 8.315792,8.315792 0 0 0 0.0195,-0.0684 l 0.0117,-0.0547 a 8.315792,8.315792 0 0 0 0.043,-0.17579 l 10.52734,-43.68554 a 8.315792,8.315792 0 0 0 -2.20313,-7.83008 l -95.11914,-95.11719 56.94727,-56.94726 a 8.3157916,8.3157916 0 0 0 2.09766,-3.53125 h 0.002 l 38.50586,-130.57032 -130.57813,38.5 0.004,0.008 a 8.3157916,8.3157916 0 0 0 -3.5332,2.08984 L 178,439.00977 121.05078,382.0625 a 8.315792,8.315792 0 0 0 -3.53125,-2.08984 l 0.002,-0.008 z m -348.345699,19.36914 h 311.087887 v 16.87305 H -357.2793 Z m 767.71679,0 H 717.4082 l -4.125,16.87305 H 406.31445 Z m -394.779294,5.22071 93.701174,27.625 -8.181642,33.95898 -23.931641,23.93164 -33.957031,8.18164 z m 332.929684,0 -27.63086,93.69726 -33.95898,-8.18164 -23.93164,-23.93164 -8.18164,-33.95898 z m -697.67968,28.27734 h 302.900387 v 276.375 H -353.2168 l 33.77344,-138.18555 z m 759.52929,0 H 709.2207 L 675.44336,532.52148 709.2207,670.70703 H 406.31445 Z m -286.53711,9.97852 231.78907,231.78906 -6.01172,24.96094 -231.78907,-231.78907 z m 116.44336,0 6.01172,24.96093 -36.98633,36.98633 -15.48632,-15.48633 z M 104.5918,443.62109 338.40234,677.43164 322.91602,692.91797 89.105469,459.10742 Z m 146.81445,0 15.48828,15.48633 -34.39844,34.39844 -15.48828,-15.48633 z M 74.757812,468.2793 306.55078,700.07422 281.58008,706.08594 49.791016,474.29688 Z m 206.484378,0 24.96484,6.01758 -46.46094,46.46093 -15.49023,-15.49219 z M 96.257812,544.27539 111.74414,559.76172 10.445312,661.06055 4.4335938,636.09961 Z m 27.246098,27.24805 15.48828,15.48633 -105.908206,105.9082 -15.488281,-15.48633 z m 27.24804,27.24609 15.49024,15.49219 -91.824221,91.82422 -24.970703,-6.01172 z m -508.03125,88.5625 h 306.964847 v 16.87109 H -361.40234 Z m 763.59375,0 h 306.97071 l 4.12304,16.87109 H 406.31445 Z m -228.375,98.13672 9.88477,31.02539 32.56055,-0.31445 -26.45313,18.98828 10.36133,30.87109 -26.23438,-19.29101 -26.15625,19.39257 10.24024,-30.91015 -26.52735,-18.88477 32.5625,0.1875 z"
           id="rect823"
           transform="scale(0.26458333)" />
        <text
           xml:space="preserve"
           style="font-style:normal;font-variant:normal;font-weight:normal;font-stretch:normal;font-size:88.0911026px;line-height:1.25;font-family:'League Gothic';-inkscape-font-specification:'League Gothic, Normal';font-variant-ligatures:normal;font-variant-caps:normal;font-variant-numeric:normal;font-feature-settings:normal;text-align:start;letter-spacing:0px;word-spacing:0px;writing-mode:lr-tb;text-anchor:start;fill:#000000;fill-opacity:1;stroke:none;stroke-width:0.6154958"
           x="-80.767265"
           y="173.2693"
           id="text1399"><tspan
             sodipodi:role="line"
             id="tspan1397"
             x="-80.767265"
             y="173.2693"
             style="font-style:normal;font-variant:normal;font-weight:normal;font-stretch:normal;font-size:88.0911026px;font-family:'League Gothic';-inkscape-font-specification:'League Gothic, Normal';font-variant-ligatures:normal;font-variant-caps:normal;font-variant-numeric:normal;font-feature-settings:normal;text-align:start;writing-mode:lr-tb;text-anchor:start;stroke-width:0.6154958">20</tspan></text>
        <text
           xml:space="preserve"
           style="font-style:normal;font-variant:normal;font-weight:normal;font-stretch:normal;font-size:87.9021759px;line-height:1.25;font-family:'League Gothic';-inkscape-font-specification:'League Gothic, Normal';font-variant-ligatures:normal;font-variant-caps:normal;font-variant-numeric:normal;font-feature-settings:normal;text-align:start;letter-spacing:0px;word-spacing:0px;writing-mode:lr-tb;text-anchor:start;fill:#000000;fill-opacity:1;stroke:none;stroke-width:0.61549568"
           x="111.42558"
           y="173.55148"
           id="text1403"><tspan
             sodipodi:role="line"
             id="tspan1401"
             x="111.42558"
             y="173.55148"
             style="font-style:normal;font-variant:normal;font-weight:normal;font-stretch:normal;font-size:87.9021759px;font-family:'League Gothic';-inkscape-font-specification:'League Gothic, Normal';font-variant-ligatures:normal;font-variant-caps:normal;font-variant-numeric:normal;font-feature-settings:normal;text-align:start;writing-mode:lr-tb;text-anchor:start;stroke-width:0.61549568">22</tspan></text>
      </g>
      <g
         id="text1432"
         style="font-style:normal;font-variant:normal;font-weight:normal;font-stretch:normal;font-size:23.75120163px;line-height:1.25;font-family:'League Gothic';-inkscape-font-specification:'League Gothic, Normal';font-variant-ligatures:normal;font-variant-caps:normal;font-variant-numeric:normal;font-feature-settings:normal;text-align:start;letter-spacing:5.91872931px;word-spacing:0px;writing-mode:lr-tb;text-anchor:start;fill:#000000;fill-opacity:1;stroke:none;stroke-width:0.10583332;stroke-miterlimit:4;stroke-dasharray:none"
         aria-label="LOGO DESIGN">
        <path
           id="path1441"
           style="font-style:normal;font-variant:normal;font-weight:normal;font-stretch:normal;font-size:23.75120163px;font-family:'League Gothic';-inkscape-font-specification:'League Gothic, Normal';font-variant-ligatures:normal;font-variant-caps:normal;font-variant-numeric:normal;font-feature-settings:normal;text-align:start;letter-spacing:5.91872931px;writing-mode:lr-tb;text-anchor:start;stroke-width:0.10583332;stroke-miterlimit:4;stroke-dasharray:none"
           d="m -26.923257,99.09686 1.550036,-2.043839 12.017018,9.113639 2.052363,-2.7062 1.8924433,1.43522 -3.6023993,4.75004 z" />
        <path
           id="path1443"
           style="font-style:normal;font-variant:normal;font-weight:normal;font-stretch:normal;font-size:23.75120163px;font-family:'League Gothic';-inkscape-font-specification:'League Gothic, Normal';font-variant-ligatures:normal;font-variant-caps:normal;font-variant-numeric:normal;font-feature-settings:normal;text-align:start;letter-spacing:5.91872931px;writing-mode:lr-tb;text-anchor:start;stroke-width:0.10583332;stroke-miterlimit:4;stroke-dasharray:none"
           d="m -2.1619616,92.619159 c 0.461175,0.543681 0.7865197,1.114384 0.9600752,1.694519 0.1608604,0.495445 0.21780824,1.053093 0.1053761,1.636131 -0.096473,0.600629 -0.4277937,1.189835 -1.0610606,1.764354 -0.6332669,0.574519 -1.2694376,0.86305 -1.8765943,0.900776 -0.5911978,0.05532 -1.1230959,-0.07144 -1.6005898,-0.279629 -0.5605519,-0.229039 -1.0969856,-0.608236 -1.5933421,-1.12 l -6.9101859,-7.616794 c -0.445216,-0.526091 -0.770561,-1.096794 -0.944116,-1.676929 -0.16086,-0.495444 -0.251358,-1.054724 -0.138926,-1.637763 0.112432,-0.583038 0.445385,-1.205794 1.078652,-1.780313 0.633266,-0.574518 1.267805,-0.8295 1.859003,-0.884816 0.591198,-0.05532 1.156646,0.07308 1.634139,0.28126 0.560552,0.22904 1.0969861,0.608237 1.5773837,1.10241 z m -8.8099864,-5.893238 c -0.319177,-0.351814 -0.612964,-0.53425 -0.980378,-0.58575 -0.167748,-0.0082 -0.356351,0.06674 -0.514667,0.210369 -0.334225,0.303218 -0.269117,0.693118 -0.132015,0.985634 0.0749,0.188602 0.200937,0.362878 0.360526,0.538785 l 6.9101857,7.616794 c 0.335136,0.369406 0.6465138,0.535882 0.9979687,0.569792 0.167748,0.0082 0.3387599,-0.05078 0.4970766,-0.19441 0.3342242,-0.303219 0.3010346,-0.657937 0.1320148,-0.985634 -0.05894,-0.171012 -0.1849788,-0.345287 -0.3605262,-0.538786 z" />
        <path
           id="path1445"
           style="font-style:normal;font-variant:normal;font-weight:normal;font-stretch:normal;font-size:23.75120163px;font-family:'League Gothic';-inkscape-font-specification:'League Gothic, Normal';font-variant-ligatures:normal;font-variant-caps:normal;font-variant-numeric:normal;font-feature-settings:normal;text-align:start;letter-spacing:5.91872931px;writing-mode:lr-tb;text-anchor:start;stroke-width:0.10583332;stroke-miterlimit:4;stroke-dasharray:none"
           d="M 4.1842718,79.010147 2.8051976,76.70767 C 2.5611137,76.300152 2.3087513,76.063707 1.958542,75.941238 c -0.1629005,-0.04086 -0.3625202,-0.0044 -0.5459033,0.105485 -0.387142,0.23188 -0.3996664,0.62698 -0.3225154,0.940684 0.036506,0.199619 0.1259678,0.395207 0.2480097,0.598966 l 5.3942549,9.006146 c 0.2562882,0.427894 0.5290264,0.652135 0.8670315,0.754228 0.1629005,0.04086 0.3421444,0.01656 0.5255274,-0.09328 0.3871421,-0.23188 0.4240748,-0.586228 0.3225154,-0.940683 C 8.4231605,86.133539 8.3336987,85.937952 8.1994525,85.713817 L 6.5762943,83.003822 5.7001308,83.528603 4.5895489,81.674396 7.6663093,79.831563 12.133045,87.289141 10.828988,88.070209 10.136954,87.515708 C 10.034541,88.269189 9.6633158,88.989877 8.9501595,89.417024 8.2370031,89.844171 7.6381438,89.953688 7.0761105,89.847349 6.5262814,89.761386 6.0498909,89.520695 5.6427998,89.21081 5.1787202,88.852003 4.7677033,88.35067 4.4219533,87.727189 l -5.2844171,-8.822763 c -0.3335458,-0.603105 -0.5408037,-1.22648 -0.5973654,-1.829372 -0.060701,-0.517355 -0.039898,-1.083528 0.1845569,-1.63325 0.2244549,-0.549723 0.67293807,-1.095199 1.40647035,-1.53455 0.73353228,-0.439351 1.40572345,-0.565105 1.99630435,-0.503551 0.5905809,0.06156 1.1199274,0.298214 1.5473944,0.595894 0.5048313,0.334399 0.9566,0.811323 1.3308976,1.39002 l 1.3790742,2.302476 z" />
        <path
           id="path1447"
           style="font-style:normal;font-variant:normal;font-weight:normal;font-stretch:normal;font-size:23.75120163px;font-family:'League Gothic';-inkscape-font-specification:'League Gothic, Normal';font-variant-ligatures:normal;font-variant-caps:normal;font-variant-numeric:normal;font-feature-settings:normal;text-align:start;letter-spacing:5.91872931px;writing-mode:lr-tb;text-anchor:start;stroke-width:0.10583332;stroke-miterlimit:4;stroke-dasharray:none"
           d="m 24.268162,78.338343 c 0.217735,0.678869 0.299649,1.330668 0.237739,1.933034 -0.0412,0.519273 -0.202204,1.0562 -0.529399,1.551698 -0.319193,0.517859 -0.850943,0.935206 -1.655982,1.223323 -0.805039,0.288116 -1.503209,0.310947 -2.078505,0.113217 -0.567293,-0.175369 -1.010063,-0.496208 -1.371387,-0.871423 -0.430059,-0.426295 -0.780319,-0.982055 -1.042778,-1.644917 l -3.465401,-9.682831 c -0.209732,-0.656507 -0.291646,-1.308306 -0.229736,-1.910672 0.0412,-0.519273 0.171839,-1.070559 0.499034,-1.566057 0.327196,-0.495497 0.873305,-0.94321 1.678344,-1.231326 0.805039,-0.288117 1.488851,-0.280582 2.056143,-0.105214 0.567292,0.175368 1.040428,0.510567 1.401752,0.885782 0.430059,0.426295 0.780319,0.982055 1.034775,1.622555 z m -5.880518,-8.818482 c -0.160064,-0.447244 -0.361558,-0.728301 -0.681219,-0.916615 -0.151827,-0.07179 -0.354735,-0.07486 -0.555994,-0.0028 -0.424882,0.152062 -0.514097,0.537162 -0.499503,0.859883 -0.0031,0.202907 0.04661,0.41217 0.126638,0.635792 l 3.465401,9.682831 c 0.168068,0.469606 0.391924,0.742661 0.703582,0.908613 0.151827,0.07179 0.332372,0.08286 0.533632,0.01083 0.424881,-0.152061 0.530102,-0.492437 0.499502,-0.859882 0.01106,-0.180546 -0.0386,-0.389809 -0.126638,-0.635793 z" />
        <path
           id="path1449"
           style="font-style:normal;font-variant:normal;font-weight:normal;font-stretch:normal;font-size:23.75120163px;font-family:'League Gothic';-inkscape-font-specification:'League Gothic, Normal';font-variant-ligatures:normal;font-variant-caps:normal;font-variant-numeric:normal;font-feature-settings:normal;text-align:start;letter-spacing:5.91872931px;writing-mode:lr-tb;text-anchor:start;stroke-width:0.10583332;stroke-miterlimit:4;stroke-dasharray:none"
           d="m 42.40919,78.616221 -0.303889,-17.454488 2.018547,-0.03514 c 2.37476,-0.04134 3.6654,0.411281 4.377233,1.729156 0.688087,1.318289 0.821115,3.501415 0.880652,6.92107 0.05954,3.419654 0.0022,5.58234 -0.639608,6.923783 -0.665527,1.341855 -1.939629,1.839134 -4.314389,1.880479 z m 2.520088,-2.609394 c 0.878661,-0.0153 1.375707,-0.118971 1.622046,-0.978433 0.11171,-0.405776 0.19595,-1.024868 0.205227,-1.856447 0.0093,-0.83158 -0.01016,-1.947717 -0.03496,-3.372573 -0.02481,-1.424856 -0.04424,-2.540994 -0.08246,-3.371746 -0.0378,-0.807005 -0.143545,-1.422789 -0.269725,-1.848179 -0.275695,-0.826618 -0.776048,-0.912926 -1.65471,-0.897628 z" />
        <path
           id="path1451"
           style="font-style:normal;font-variant:normal;font-weight:normal;font-stretch:normal;font-size:23.75120163px;font-family:'League Gothic';-inkscape-font-specification:'League Gothic, Normal';font-variant-ligatures:normal;font-variant-caps:normal;font-variant-numeric:normal;font-feature-settings:normal;text-align:start;letter-spacing:5.91872931px;writing-mode:lr-tb;text-anchor:start;stroke-width:0.10583332;stroke-miterlimit:4;stroke-dasharray:none"
           d="m 60.143443,61.977539 5.779065,1.009347 -0.453593,2.59707 -3.252187,-0.568013 -0.788679,4.515625 2.339702,0.408643 -0.482198,2.760848 -2.339702,-0.408642 -0.825458,4.726199 3.252186,0.568013 -0.453593,2.597069 -5.779065,-1.009346 z" />
        <path
           id="path1453"
           style="font-style:normal;font-variant:normal;font-weight:normal;font-stretch:normal;font-size:23.75120163px;font-family:'League Gothic';-inkscape-font-specification:'League Gothic, Normal';font-variant-ligatures:normal;font-variant-caps:normal;font-variant-numeric:normal;font-feature-settings:normal;text-align:start;letter-spacing:5.91872931px;writing-mode:lr-tb;text-anchor:start;stroke-width:0.10583332;stroke-miterlimit:4;stroke-dasharray:none"
           d="m 78.487068,71.657839 c 0.200626,-0.533557 0.404098,-1.142167 0.424025,-1.667544 0.01157,-0.503146 -0.115948,-0.906341 -0.493883,-1.048451 -0.630842,-0.211831 -1.073348,0.357648 -1.432802,1.313603 -0.208985,0.555787 -0.181783,1.22576 -0.06014,1.981993 0.121641,0.756232 0.34608,1.576494 0.5538,2.441218 0.24649,1.031551 0.48462,2.085333 0.597721,3.066728 0.113101,0.981394 0.08445,1.934864 -0.249923,2.824124 -0.40961,1.089344 -0.971995,2.045118 -1.767539,2.608723 -0.795545,0.563605 -1.802017,0.743401 -3.113676,0.250196 -1.533974,-0.576799 -2.183659,-1.480835 -2.338376,-2.554002 -0.154717,-1.073167 0.177174,-2.293234 0.636941,-3.515967 l 2.440134,0.663781 c -0.259142,0.689177 -0.496052,1.386713 -0.510466,1.964913 -0.04501,0.592072 0.08802,1.048089 0.599347,1.240355 0.711409,0.267501 1.262406,-0.388057 1.655298,-1.432938 0.200626,-0.533556 0.167911,-1.256351 0.05463,-2.034816 -0.08305,-0.386475 -0.157745,-0.795183 -0.254669,-1.212249 -0.21608,-0.842493 -0.443185,-1.79063 -0.667443,-2.813822 -0.224258,-1.023191 -0.306768,-2.018458 -0.225298,-2.97744 0.02544,-0.472555 0.125933,-0.942264 0.293121,-1.386894 0.334376,-0.88926 0.893914,-1.76998 1.681099,-2.311354 0.778825,-0.519142 1.749194,-0.737888 2.891361,-0.33379 1.453407,0.52113 2.072501,1.439038 2.213346,2.481614 0.132485,1.064808 -0.143736,2.204308 -0.486472,3.1158 z" />
        <path
           id="path1455"
           style="font-style:normal;font-variant:normal;font-weight:normal;font-stretch:normal;font-size:23.75120163px;font-family:'League Gothic';-inkscape-font-specification:'League Gothic, Normal';font-variant-ligatures:normal;font-variant-caps:normal;font-variant-numeric:normal;font-feature-settings:normal;text-align:start;letter-spacing:5.91872931px;writing-mode:lr-tb;text-anchor:start;stroke-width:0.10583332;stroke-miterlimit:4;stroke-dasharray:none"
           d="m 91.623025,72.716669 2.218194,1.288218 -8.76704,15.096043 -2.218194,-1.288218 z" />
        <path
           id="path1457"
           style="font-style:normal;font-variant:normal;font-weight:normal;font-stretch:normal;font-size:23.75120163px;font-family:'League Gothic';-inkscape-font-specification:'League Gothic, Normal';font-variant-ligatures:normal;font-variant-caps:normal;font-variant-numeric:normal;font-feature-settings:normal;text-align:start;letter-spacing:5.91872931px;writing-mode:lr-tb;text-anchor:start;stroke-width:0.10583332;stroke-miterlimit:4;stroke-dasharray:none"
           d="m 101.89217,87.45655 1.71457,-2.064822 c 0.30347,-0.365455 0.4428,-0.681966 0.44215,-1.052971 -0.0155,-0.16723 -0.11616,-0.343434 -0.28061,-0.479993 -0.34719,-0.28829 -0.72407,-0.16903 -0.99441,0.0078 -0.1762,0.100662 -0.33103,0.249944 -0.48277,0.432671 l -6.706547,8.076561 c -0.318637,0.383728 -0.439698,0.715413 -0.423875,1.068145 0.0155,0.16723 0.09789,0.32826 0.262342,0.464819 0.347183,0.288291 0.693716,0.205576 0.994405,-0.0078 0.16103,-0.08239 0.315862,-0.231672 0.482767,-0.432672 l 2.018034,-2.430277 -0.785728,-0.652448 1.38076,-1.662821 2.759192,2.291152 -5.553393,6.687831 -1.169457,-0.971085 0.293516,-0.836798 c -0.744785,0.153355 -1.547813,0.04224 -2.187359,-0.488819 -0.639547,-0.531062 -0.941535,-1.059673 -1.027673,-1.625155 -0.101312,-0.547209 -0.03229,-1.07647 0.124987,-1.56331 0.184529,-0.556833 0.521114,-1.11089 0.994583,-1.6439 l 6.569996,-7.912105 c 0.45829,-0.514737 0.9776,-0.917063 1.52759,-1.170431 0.46792,-0.228896 1.00893,-0.3971 1.60198,-0.367728 0.59305,0.02937 1.25642,0.271494 1.91424,0.817729 0.65782,0.546235 0.99945,1.138639 1.13731,1.716194 0.13786,0.577556 0.0902,1.155436 -0.0488,1.65745 -0.14798,0.587178 -0.44802,1.171582 -0.86977,1.716665 l -1.71457,2.064822 z" />
        <path
           id="path1459"
           style="font-style:normal;font-variant:normal;font-weight:normal;font-stretch:normal;font-size:23.75120163px;font-family:'League Gothic';-inkscape-font-specification:'League Gothic, Normal';font-variant-ligatures:normal;font-variant-caps:normal;font-variant-numeric:normal;font-feature-settings:normal;text-align:start;letter-spacing:5.91872931px;writing-mode:lr-tb;text-anchor:start;stroke-width:0.10583332;stroke-miterlimit:4;stroke-dasharray:none"
           d="m 111.01402,99.672811 0.49706,-0.67138 -0.089,-0.11128 -7.73399,6.187049 -1.46887,-1.83612 13.63185,-10.90524 1.42436,1.780487 -5.54551,7.630003 -0.49706,0.67138 0.089,0.11128 7.73399,-6.187055 1.46887,1.836127 -13.63185,10.905238 -1.42436,-1.78049 z" />
      </g>
      <g
         id="text1436"
         style="font-style:normal;font-variant:normal;font-weight:normal;font-stretch:normal;font-size:23.75120163px;line-height:1.25;font-family:'League Gothic';-inkscape-font-specification:'League Gothic, Normal';font-variant-ligatures:normal;font-variant-caps:normal;font-variant-numeric:normal;font-feature-settings:normal;text-align:start;letter-spacing:7.27868748px;word-spacing:0px;writing-mode:lr-tb;text-anchor:start;fill:#000000;fill-opacity:1;stroke:none;stroke-width:0.26458332"
         aria-label="WITH INKSCAPE">
        <path
           id="path1465"
           style="font-style:normal;font-variant:normal;font-weight:normal;font-stretch:normal;font-size:23.75120163px;font-family:'League Gothic';-inkscape-font-specification:'League Gothic, Normal';font-variant-ligatures:normal;font-variant-caps:normal;font-variant-numeric:normal;font-feature-settings:normal;text-align:start;letter-spacing:7.27868748px;writing-mode:lr-tb;text-anchor:start;stroke-width:0.26458332"
           d="m -28.652264,203.50697 -1.143726,-1.63472 12.955859,-11.93424 1.361579,1.9461 -6.848616,6.03805 -0.439832,0.3657 0.108926,0.15569 0.507911,-0.2684 8.060422,-4.30602 1.062031,1.51795 -6.807769,6.09644 -0.426216,0.38516 0.108926,0.15569 0.494296,-0.28786 8.019574,-4.36441 1.361579,1.9461 -15.651786,8.08097 -1.143726,-1.63472 6.091633,-5.71135 0.755127,-0.70224 -0.05446,-0.0779 -0.918517,0.46872 z" />
        <path
           id="path1467"
           style="font-style:normal;font-variant:normal;font-weight:normal;font-stretch:normal;font-size:23.75120163px;font-family:'League Gothic';-inkscape-font-specification:'League Gothic, Normal';font-variant-ligatures:normal;font-variant-caps:normal;font-variant-numeric:normal;font-feature-settings:normal;text-align:start;letter-spacing:7.27868748px;writing-mode:lr-tb;text-anchor:start;stroke-width:0.26458332"
           d="m -6.4277268,203.3524 1.8041074,1.82348 -12.4098096,12.27795 -1.804107,-1.82348 z" />
        <path
           id="path1469"
           style="font-style:normal;font-variant:normal;font-weight:normal;font-stretch:normal;font-size:23.75120163px;font-family:'League Gothic';-inkscape-font-specification:'League Gothic, Normal';font-variant-ligatures:normal;font-variant-caps:normal;font-variant-numeric:normal;font-feature-settings:normal;text-align:start;letter-spacing:7.27868748px;writing-mode:lr-tb;text-anchor:start;stroke-width:0.26458332"
           d="m -2.0068797,211.18544 1.58444485,-2.10714 5.92278045,4.45358 -1.5844449,2.10714 -1.9362936,-1.45598 -8.9071496,11.84556 -2.0501932,-1.54162 8.90714957,-11.84556 z" />
        <path
           id="path1471"
           style="font-style:normal;font-variant:normal;font-weight:normal;font-stretch:normal;font-size:23.75120163px;font-family:'League Gothic';-inkscape-font-specification:'League Gothic, Normal';font-variant-ligatures:normal;font-variant-caps:normal;font-variant-numeric:normal;font-feature-settings:normal;text-align:start;letter-spacing:7.27868748px;writing-mode:lr-tb;text-anchor:start;stroke-width:0.26458332"
           d="m 9.5648769,227.19135 -1.7748403,-0.91125 -3.471414,6.7613 -2.2819376,-1.17161 7.973404,-15.52985 2.281938,1.1716 -3.2978437,6.42324 1.7748407,0.91124 3.297843,-6.42323 2.281937,1.1716 -7.9734036,15.52985 -2.2819375,-1.1716 z" />
        <path
           id="path1473"
           style="font-style:normal;font-variant:normal;font-weight:normal;font-stretch:normal;font-size:23.75120163px;font-family:'League Gothic';-inkscape-font-specification:'League Gothic, Normal';font-variant-ligatures:normal;font-variant-caps:normal;font-variant-numeric:normal;font-feature-settings:normal;text-align:start;letter-spacing:7.27868748px;writing-mode:lr-tb;text-anchor:start;stroke-width:0.26458332"
           d="m 30.938575,224.40082 2.512553,0.51669 -3.516358,17.09932 -2.512553,-0.51669 z" />
        <path
           id="path1475"
           style="font-style:normal;font-variant:normal;font-weight:normal;font-stretch:normal;font-size:23.75120163px;font-family:'League Gothic';-inkscape-font-specification:'League Gothic, Normal';font-variant-ligatures:normal;font-variant-caps:normal;font-variant-numeric:normal;font-feature-settings:normal;text-align:start;letter-spacing:7.27868748px;writing-mode:lr-tb;text-anchor:start;stroke-width:0.26458332"
           d="m 42.1623,234.40033 -0.174498,-0.81693 -0.142341,-0.007 -0.478491,9.89268 -2.348623,-0.11359 0.843383,-17.43675 2.277453,0.11015 2.051487,9.20657 0.174498,0.81693 0.14234,0.007 0.478491,-9.89268 2.348624,0.1136 -0.843384,17.43675 -2.277452,-0.11016 z" />
        <path
           id="path1477"
           style="font-style:normal;font-variant:normal;font-weight:normal;font-stretch:normal;font-size:23.75120163px;font-family:'League Gothic';-inkscape-font-specification:'League Gothic, Normal';font-variant-ligatures:normal;font-variant-caps:normal;font-variant-numeric:normal;font-feature-settings:normal;text-align:start;letter-spacing:7.27868748px;writing-mode:lr-tb;text-anchor:start;stroke-width:0.26458332"
           d="m 55.923654,225.67364 0.799946,6.05142 0.09419,-0.0125 0.08038,-0.29812 1.356577,-6.049 2.472368,-0.32682 -1.577832,6.00637 4.17172,11.25974 -2.472368,0.32682 -2.762019,-7.30139 -0.117329,-0.34385 -0.07064,0.009 -0.09459,0.37187 -0.401901,1.49059 0.809285,6.12206 -2.543007,0.33616 -2.287785,-17.30657 z" />
        <path
           id="path1479"
           style="font-style:normal;font-variant:normal;font-weight:normal;font-stretch:normal;font-size:23.75120163px;font-family:'League Gothic';-inkscape-font-specification:'League Gothic, Normal';font-variant-ligatures:normal;font-variant-caps:normal;font-variant-numeric:normal;font-feature-settings:normal;text-align:start;letter-spacing:7.27868748px;writing-mode:lr-tb;text-anchor:start;stroke-width:0.26458332"
           d="m 71.786723,226.91136 c -0.171366,-0.54366 -0.386804,-1.14814 -0.695317,-1.57386 -0.301372,-0.40307 -0.650513,-0.64166 -1.035605,-0.52028 -0.627131,0.22258 -0.623937,0.94376 -0.316908,1.91782 0.178506,0.56632 0.613329,1.07674 1.175696,1.59677 0.562367,0.52002 1.245136,1.027 1.942186,1.57929 0.830501,0.65963 1.668143,1.34192 2.362729,2.0444 0.694586,0.70248 1.260397,1.47046 1.546006,2.37656 0.349871,1.10997 0.497101,2.20911 0.21886,3.14352 -0.27824,0.93441 -0.959299,1.69695 -2.295797,2.11823 -1.563025,0.49267 -2.632119,0.18217 -3.416083,-0.56684 -0.783964,-0.74902 -1.275659,-1.9139 -1.668371,-3.15979 l 2.329765,-0.98339 c 0.221347,0.70223 0.465347,1.39732 0.810792,1.8612 0.329933,0.49368 0.716007,0.77044 1.237015,0.60622 0.72488,-0.22849 0.753943,-1.08436 0.418353,-2.14903 -0.171366,-0.54366 -0.643122,-1.09225 -1.212629,-1.63493 -0.303836,-0.25287 -0.614812,-0.5284 -0.94844,-0.79678 -0.68991,-0.52963 -1.453686,-1.13559 -2.261534,-1.80237 -0.807849,-0.66678 -1.486923,-1.39905 -2.014569,-2.20396 -0.27158,-0.38755 -0.482342,-0.81918 -0.625146,-1.27223 -0.285609,-0.9061 -0.388766,-1.94442 -0.103385,-2.85618 0.292521,-0.88911 0.921134,-1.66002 2.069273,-2.04683 1.465273,-0.48677 2.518855,-0.14648 3.273027,0.58703 0.761312,0.75615 1.247098,1.82329 1.539847,2.75204 z" />
        <path
           id="path1481"
           style="font-style:normal;font-variant:normal;font-weight:normal;font-stretch:normal;font-size:23.75120163px;font-family:'League Gothic';-inkscape-font-specification:'League Gothic, Normal';font-variant-ligatures:normal;font-variant-caps:normal;font-variant-numeric:normal;font-feature-settings:normal;text-align:start;letter-spacing:7.27868748px;writing-mode:lr-tb;text-anchor:start;stroke-width:0.26458332"
           d="m 89.226744,226.63457 1.095894,2.13392 c 0.304385,0.64468 0.470579,1.28024 0.487732,1.88554 0.02686,0.52021 -0.06277,1.07354 -0.322576,1.60747 -0.24895,0.55506 -0.721749,1.03817 -1.482353,1.42878 -0.760604,0.39062 -1.449839,0.50428 -2.046004,0.38324 -0.585314,-0.0999 -1.066135,-0.36028 -1.473295,-0.68518 -0.481966,-0.36659 -0.901695,-0.87194 -1.248336,-1.49493 l -4.698238,-9.14837 c -0.293535,-0.62356 -0.459729,-1.25912 -0.476882,-1.86441 -0.02686,-0.52022 0.0308,-1.08383 0.290597,-1.61776 0.259801,-0.53392 0.742878,-1.04901 1.503482,-1.43963 0.760604,-0.39062 1.439561,-0.4723 2.024875,-0.37239 0.585315,0.0999 1.098114,0.37056 1.505274,0.69547 0.481966,0.36658 0.901695,0.87193 1.237486,1.47379 l 1.095894,2.13392 -2.133917,1.09589 -1.095894,-2.13391 c -0.217009,-0.42256 -0.474554,-0.6641 -0.837166,-0.79828 -0.159892,-0.0514 -0.382594,-0.0171 -0.615001,0.10224 -0.40143,0.20616 -0.439675,0.5996 -0.404258,0.92851 0.02342,0.20158 0.09995,0.40258 0.187322,0.62471 l 4.698238,9.14838 c 0.248987,0.43283 0.52766,0.66352 0.858294,0.78742 0.159891,0.0514 0.340338,0.0388 0.530489,-0.0588 0.485941,-0.24956 0.545887,-0.60074 0.48877,-0.97191 -0.01257,-0.18045 -0.0891,-0.38145 -0.20845,-0.61386 l -1.095894,-2.13392 z" />
        <path
           id="path1483"
           style="font-style:normal;font-variant:normal;font-weight:normal;font-stretch:normal;font-size:23.75120163px;font-family:'League Gothic';-inkscape-font-specification:'League Gothic, Normal';font-variant-ligatures:normal;font-variant-caps:normal;font-variant-numeric:normal;font-feature-settings:normal;text-align:start;letter-spacing:7.27868748px;writing-mode:lr-tb;text-anchor:start;stroke-width:0.26458332"
           d="m 98.873158,227.69808 -8.39213,-15.53301 2.50486,-1.88544 12.604852,12.36203 -1.99251,1.49978 -2.52207,-2.56075 -1.973525,1.4855 1.763025,3.1321 z m -3.612048,-12.02612 -0.328318,-0.31769 -0.113858,0.0857 0.214461,0.4034 2.725546,4.84527 1.40424,-1.05699 z" />
        <path
           id="path1485"
           style="font-style:normal;font-variant:normal;font-weight:normal;font-stretch:normal;font-size:23.75120163px;font-family:'League Gothic';-inkscape-font-specification:'League Gothic, Normal';font-variant-ligatures:normal;font-variant-caps:normal;font-variant-numeric:normal;font-feature-settings:normal;text-align:start;letter-spacing:7.27868748px;writing-mode:lr-tb;text-anchor:start;stroke-width:0.26458332"
           d="m 99.079365,204.99904 1.750855,-1.87467 c 0.76195,-0.81583 1.73219,-1.43712 2.90599,-1.51082 1.17379,-0.0737 2.53492,0.41757 3.993,1.77935 1.45807,1.36178 2.02369,2.67001 2.03024,3.84609 0.007,1.17609 -0.51238,2.21888 -1.27432,3.03471 l 5.10327,4.76622 -1.75086,1.87467 z m 7.496375,3.49138 c 0.53498,-0.57282 0.77128,-1.0346 0.67073,-1.5185 -0.0832,-0.46768 -0.50322,-0.95747 -1.2149,-1.62215 -0.71168,-0.66468 -1.2637,-1.08274 -1.77068,-1.16625 -0.50699,-0.0835 -0.9863,0.15131 -1.52128,0.72413 z" />
        <path
           id="path1487"
           style="font-style:normal;font-variant:normal;font-weight:normal;font-stretch:normal;font-size:23.75120163px;font-family:'League Gothic';-inkscape-font-specification:'League Gothic, Normal';font-variant-ligatures:normal;font-variant-caps:normal;font-variant-numeric:normal;font-feature-settings:normal;text-align:start;letter-spacing:7.27868748px;writing-mode:lr-tb;text-anchor:start;stroke-width:0.26458332"
           d="m 107.34719,195.31668 3.24,-4.89068 2.19784,1.45604 -1.82332,2.75224 3.82146,2.53166 1.31174,-1.98003 2.33644,1.54786 -1.31174,1.98003 3.99966,2.64972 1.82333,-2.75225 2.19783,1.45604 -3.24,4.89068 z" />
      </g>
    </g>
  </g>
</svg>
